<?xml version="1.0" encoding="UTF-8"?>
<svg width="248px" height="54px" viewBox="0 0 248 54" version="1.1" xmlns="http://www.w3.org/2000/svg" xmlns:xlink="http://www.w3.org/1999/xlink">
    <!-- Generator: Sketch 61.2 (89653) - https://sketch.com -->
    <title>logo-whitebackground</title>
    <desc>Created with Sketch.</desc>
    <g id="Page-1" stroke="none" stroke-width="1" fill="none" fill-rule="evenodd">
        <g id="Desktop-HD" transform="translate(-675.000000, -5498.000000)" fill-rule="nonzero">
            <g id="Group-37" transform="translate(183.000000, 5455.000000)">
                <g id="logo-whitebackground" transform="translate(492.000000, 43.000000)">
                    <g id="Group" fill="#fff">
                        <path d="M46.9029178,2.23902439 C46.1135279,0.856097561 44.666313,0 43.0217507,0 L17.3665782,0 C15.7877984,0 14.2748011,0.856097561 13.4854111,2.23902439 L0.59204244,24.497561 C-0.19734748,25.8804878 -0.19734748,27.5926829 0.59204244,28.9756098 L13.4196286,51.2341463 C14.2090186,52.6170732 15.7220159,53.4731707 17.3007958,53.4731707 L43.0217507,53.4731707 C44.6005305,53.4731707 46.1135279,52.6170732 46.9029178,51.2341463 L59.730504,28.9756098 C60.5198939,27.5926829 60.5198939,25.8804878 59.730504,24.497561 L46.9029178,2.23902439 Z" id="Path"></path>
                        <path d="M86.9644562,26.7365854 C86.1750663,26.1439024 85.2541114,25.6170732 84.135809,25.1560976 C83.0175066,24.7609756 81.7676393,24.3658537 80.4519894,23.9707317 C79.3994695,23.7073171 78.4785146,23.4439024 77.6891247,23.2463415 C76.8997347,22.9829268 76.2419098,22.7195122 75.7156499,22.4560976 C75.1893899,22.1926829 74.794695,21.8634146 74.531565,21.4682927 C74.268435,21.0731707 74.13687,20.6121951 74.13687,20.0853659 C74.13687,19.097561 74.531565,18.3731707 75.1893899,17.8463415 C75.9129973,17.3195122 77.0312997,17.0560976 78.4785146,17.0560976 C78.5442971,17.0560976 78.6100796,17.0560976 78.6758621,17.0560976 C79.333687,17.0560976 80.5177719,17.2536585 81.2413793,17.4512195 C81.9649867,17.6487805 82.6228117,17.8463415 83.2148541,18.1097561 C83.872679,18.4390244 84.4647215,18.702439 84.9909814,19.0317073 C85.1883289,19.1634146 85.3856764,19.295122 85.5172414,19.4268293 C85.5830239,19.4926829 85.7145889,19.5585366 85.8461538,19.5585366 C86.0435013,19.5585366 86.2408488,19.4268293 86.3066313,19.295122 L88.2143236,15.8707317 C88.3458886,15.6073171 88.2801061,15.3439024 88.0169761,15.1463415 C86.8986737,14.4219512 85.5830239,13.7634146 84.0700265,13.2365854 C82.4254642,12.6439024 80.6493369,12.3146341 78.6758621,12.3146341 C77.2944297,12.3146341 75.9787798,12.5121951 74.7289125,12.9073171 C73.4790451,13.302439 72.4265252,13.8292683 71.5055703,14.5536585 C70.5846154,15.2780488 69.861008,16.2 69.334748,17.3195122 C68.8084881,18.4390244 68.5453581,19.6902439 68.5453581,21.0731707 C68.5453581,22.1268293 68.7427056,23.0487805 69.0058355,23.8390244 C69.334748,24.6292683 69.7952255,25.2878049 70.4530504,25.8804878 C71.1108753,26.4731707 71.9002653,27 72.8870027,27.395122 C73.8737401,27.8560976 74.9920424,28.2512195 76.3734748,28.5804878 C77.3602122,28.8439024 78.3469496,29.1731707 79.333687,29.4365854 C80.1888594,29.7 80.9782493,29.9634146 81.5702918,30.2926829 C82.1623342,30.6219512 82.6885942,30.9512195 83.0175066,31.3463415 C83.3464191,31.7414634 83.5437666,32.2682927 83.5437666,32.8609756 C83.5437666,34.704878 82.0307692,35.6926829 79.1363395,35.6926829 C78.0838196,35.6926829 77.0312997,35.5609756 76.0445623,35.297561 C75.0578249,35.0341463 74.13687,34.704878 73.2816976,34.3756098 C72.4265252,33.9804878 71.7029178,33.6512195 71.1108753,33.2560976 C70.7819629,33.0585366 70.5188329,32.8609756 70.2557029,32.7292683 C70.1899204,32.6634146 70.0583554,32.597561 69.9267905,32.597561 C69.729443,32.597561 69.5320955,32.7292683 69.466313,32.8609756 L67.5586207,36.5487805 C67.4270557,36.8121951 67.4928382,37.0756098 67.7559682,37.2073171 C69.2689655,38.2609756 70.9793103,39.0512195 72.8870027,39.6439024 C74.9262599,40.2365854 76.9655172,40.5658537 79.070557,40.5658537 C80.3862069,40.5658537 81.7018568,40.4341463 82.9517241,40.104878 C84.2015915,39.7756098 85.3198939,39.3146341 86.2408488,38.6560976 C87.1618037,37.997561 87.9511936,37.1414634 88.5432361,36.0878049 C89.1352785,35.0341463 89.3984085,33.7170732 89.3984085,32.2682927 C89.3984085,31.0170732 89.201061,29.897561 88.7405836,29.0414634 C88.3458886,28.1195122 87.7538462,27.3292683 86.9644562,26.7365854 Z" id="Path"></path>
                        <path d="M109.330504,22.4560976 C108.409549,21.4682927 107.291247,20.6780488 105.975597,20.1512195 C104.659947,19.5585366 103.14695,19.295122 101.502387,19.295122 C99.8578249,19.295122 98.3448276,19.5585366 97.0291777,20.1512195 C95.7135279,20.7439024 94.5952255,21.5341463 93.6742706,22.4560976 C92.7533156,23.4439024 92.0297082,24.5634146 91.5692308,25.8146341 C91.0429708,27.0658537 90.8456233,28.4487805 90.8456233,29.897561 C90.8456233,31.2804878 91.1087533,32.6634146 91.5692308,33.9146341 C92.0297082,35.1658537 92.7533156,36.3512195 93.6742706,37.2731707 C94.5952255,38.2609756 95.7135279,39.0512195 97.0291777,39.5780488 C98.3448276,40.1707317 99.8578249,40.4341463 101.502387,40.4341463 C103.14695,40.4341463 104.659947,40.1707317 105.975597,39.5780488 C107.291247,38.9853659 108.409549,38.195122 109.330504,37.2731707 C110.251459,36.2853659 110.975066,35.1658537 111.435544,33.9146341 C111.961804,32.6634146 112.159151,31.2804878 112.159151,29.897561 C112.159151,28.4487805 111.896021,27.0658537 111.435544,25.8146341 C110.975066,24.5634146 110.251459,23.4439024 109.330504,22.4560976 Z M103.541645,35.5609756 C102.88382,35.8243902 102.225995,36.0219512 101.436605,36.0219512 C100.712997,36.0219512 99.9893899,35.8902439 99.331565,35.5609756 C98.6737401,35.297561 98.1474801,34.8365854 97.6212202,34.3097561 C97.1607427,33.7829268 96.7660477,33.1243902 96.5029178,32.4 C96.2397878,31.6756098 96.1082228,30.8195122 96.1082228,29.9634146 C96.1082228,29.1073171 96.2397878,28.2512195 96.5029178,27.5268293 C96.7660477,26.802439 97.1607427,26.1439024 97.6212202,25.6170732 C98.0816976,25.0902439 98.6737401,24.6292683 99.331565,24.3658537 C99.9893899,24.0365854 100.647215,23.904878 101.436605,23.904878 C102.160212,23.904878 102.88382,24.0365854 103.541645,24.3658537 C104.199469,24.6292683 104.725729,25.0902439 105.251989,25.6170732 C105.712467,26.1439024 106.107162,26.802439 106.370292,27.5268293 C106.633422,28.2512195 106.764987,29.1073171 106.764987,29.9634146 C106.764987,30.8853659 106.633422,31.6756098 106.370292,32.4658537 C106.107162,33.1902439 105.712467,33.8487805 105.251989,34.3756098 C104.791512,34.8365854 104.199469,35.297561 103.541645,35.5609756 Z" id="Shape"></path>
                        <path d="M133.341114,35.0341463 L129.196817,33.7829268 C129.131034,33.7829268 129.065252,33.7829268 129.065252,33.7829268 C128.867905,33.7829268 128.73634,33.8487805 128.604775,34.0463415 C128.275862,34.5731707 127.815385,35.0341463 127.15756,35.4292683 C126.36817,35.8902439 125.512997,36.1536585 124.592042,36.1536585 C123.868435,36.1536585 123.21061,36.0219512 122.552785,35.6926829 C121.89496,35.4292683 121.3687,34.9682927 120.84244,34.4414634 C120.381963,33.9146341 119.987268,33.2560976 119.724138,32.5317073 C119.461008,31.8073171 119.329443,30.9512195 119.329443,30.0292683 C119.329443,29.1073171 119.461008,28.3170732 119.724138,27.5268293 C119.987268,26.802439 120.381963,26.1439024 120.84244,25.6170732 C121.302918,25.0902439 121.89496,24.695122 122.552785,24.3658537 C123.21061,24.102439 123.868435,23.904878 124.657825,23.904878 C125.512997,23.904878 126.36817,24.102439 127.025995,24.497561 C127.618037,24.8268293 128.144297,25.3536585 128.604775,25.9463415 C128.670557,26.0780488 128.867905,26.1439024 129.065252,26.1439024 C129.131034,26.1439024 129.196817,26.1439024 129.196817,26.1439024 L133.406897,24.8926829 C133.538462,24.8268293 133.670027,24.7609756 133.735809,24.5634146 C133.801592,24.4317073 133.801592,24.2341463 133.670027,24.102439 C132.880637,22.7853659 131.828117,21.6658537 130.446684,20.8756098 C128.867905,19.8878049 126.960212,19.4268293 124.723607,19.4268293 C123.079045,19.4268293 121.566048,19.6902439 120.250398,20.2829268 C118.934748,20.8756098 117.750663,21.6658537 116.829708,22.5878049 C115.908753,23.5756098 115.185146,24.695122 114.658886,25.9463415 C114.132626,27.197561 113.935279,28.5804878 113.935279,30.0292683 C113.935279,31.4121951 114.198408,32.795122 114.724668,34.1121951 C115.250928,35.4292683 115.974536,36.5487805 116.895491,37.5365854 C117.816446,38.5243902 119.000531,39.3146341 120.31618,39.8414634 C121.63183,40.4341463 123.144828,40.697561 124.78939,40.697561 C127.025995,40.697561 128.999469,40.1707317 130.644032,39.1829268 C132.091247,38.3268293 133.143767,37.2073171 133.867374,35.8902439 C133.933156,35.7585366 133.933156,35.5609756 133.867374,35.4292683 C133.604244,35.1658537 133.538462,35.0341463 133.341114,35.0341463 Z" id="Path"></path>
                        <path d="M140.708753,19.6243902 L136.432891,19.6243902 C136.169761,19.6243902 135.906631,19.8878049 135.906631,20.1512195 L135.906631,39.6439024 C135.906631,39.9073171 136.169761,40.1707317 136.432891,40.1707317 L140.708753,40.1707317 C140.971883,40.1707317 141.235013,39.9073171 141.235013,39.6439024 L141.235013,20.1512195 C141.235013,19.8878049 140.971883,19.6243902 140.708753,19.6243902 Z" id="Path"></path>
                        <path d="M140.708753,11.5902439 L136.432891,11.5902439 C136.169761,11.5902439 135.906631,11.8536585 135.906631,12.1170732 L135.906631,16.3317073 C135.906631,16.595122 136.169761,16.8585366 136.432891,16.8585366 L140.708753,16.8585366 C140.971883,16.8585366 141.235013,16.595122 141.235013,16.3317073 L141.235013,12.1170732 C141.235013,11.8536585 140.971883,11.5902439 140.708753,11.5902439 Z" id="Path"></path>
                        <path d="M163.469496,35.5609756 C163.206366,35.495122 163.009019,35.3634146 162.877454,35.2317073 C162.680106,35.0341463 162.614324,34.6390244 162.614324,34.1121951 L162.614324,27.7243902 C162.614324,25.0243902 161.759151,22.8512195 160.180371,21.402439 C158.535809,19.9536585 156.233422,19.2292683 153.338992,19.2292683 C150.444562,19.2292683 147.681698,20.0195122 145.181963,21.6 C144.984615,21.7317073 144.85305,22.0609756 144.984615,22.2585366 L146.366048,25.1560976 L146.366048,25.2219512 L146.43183,25.2219512 C147.48435,24.497561 148.602653,23.904878 149.58939,23.5097561 C150.64191,23.1146341 151.69443,22.9170732 152.74695,22.9170732 C154.259947,22.9170732 155.378249,23.3121951 156.101857,23.9707317 C156.825464,24.695122 157.220159,25.7487805 157.220159,27.0658537 L157.220159,27.6585366 C157.220159,27.9219512 157.022812,28.1195122 156.759682,28.1195122 C156.693899,28.1195122 156.628117,28.1195122 156.628117,28.1195122 C156.101857,27.9219512 155.575597,27.7902439 154.983554,27.7243902 C154.128382,27.5926829 153.207427,27.4609756 152.286472,27.4609756 C151.036605,27.4609756 149.85252,27.6585366 148.734218,27.9219512 C147.681698,28.2512195 146.760743,28.7121951 145.971353,29.304878 C145.181963,29.897561 144.58992,30.5560976 144.195225,31.4121951 C143.734748,32.202439 143.537401,33.1243902 143.537401,34.1121951 C143.537401,35.0341463 143.734748,35.8902439 144.06366,36.6804878 C144.392573,37.4707317 144.918833,38.1292683 145.510875,38.7219512 C146.1687,39.3146341 146.892308,39.7756098 147.74748,40.104878 C148.602653,40.4341463 149.523607,40.5658537 150.510345,40.5658537 C152.023342,40.5658537 153.404775,40.2365854 154.720424,39.6439024 C155.707162,39.1829268 156.562334,38.5243902 157.351724,37.7341463 C157.417507,37.6682927 157.549072,37.602439 157.680637,37.602439 C157.877984,37.602439 158.075332,37.7341463 158.141114,37.997561 C158.272679,38.7219512 158.601592,39.3146341 159.127851,39.7756098 C159.654111,40.2365854 160.443501,40.4341463 161.430239,40.4341463 C161.956499,40.4341463 162.614324,40.3682927 163.337931,40.2365854 C163.601061,40.1707317 163.798408,39.9731707 163.798408,39.7097561 L163.798408,36.0878049 C163.798408,35.8902439 163.666844,35.6268293 163.469496,35.5609756 Z M157.285942,31.4780488 L157.285942,33.4536585 C157.285942,33.9804878 157.022812,34.4414634 156.430769,34.902439 C155.970292,35.4292683 155.378249,35.8243902 154.588859,36.1536585 C153.799469,36.4829268 152.944297,36.6146341 152.089125,36.6146341 C151.102387,36.6146341 150.312997,36.3512195 149.58939,35.7585366 C148.931565,35.1658537 148.602653,34.4414634 148.602653,33.5853659 C148.602653,32.6634146 148.997347,31.8731707 149.85252,31.2804878 C150.707692,30.6878049 151.825995,30.3585366 153.141645,30.3585366 C153.799469,30.3585366 154.523077,30.4243902 155.246684,30.5560976 C155.838727,30.6878049 156.430769,30.8195122 156.957029,31.0170732 C157.154377,31.1487805 157.285942,31.2804878 157.285942,31.4780488 Z" id="Shape"></path>
                        <path d="M176.2313,36.0219512 C176.165517,35.7585366 175.96817,35.5609756 175.70504,35.5609756 C175.639257,35.5609756 175.573475,35.5609756 175.507692,35.5609756 C175.310345,35.6268293 175.17878,35.6926829 174.981432,35.7585366 C174.586737,35.8902439 174.257825,35.8902439 173.928912,35.8902439 C173.271088,35.8902439 172.744828,35.6926829 172.415915,35.297561 C172.087003,34.902439 171.889655,34.3097561 171.889655,33.5853659 L171.889655,12.1170732 C171.889655,11.8536585 171.626525,11.5902439 171.363395,11.5902439 L167.087533,11.5902439 C166.824403,11.5902439 166.561273,11.8536585 166.561273,12.1170732 L166.561273,35.4292683 C166.561273,37.0756098 167.021751,38.3268293 167.942706,39.1829268 C168.86366,40.0390244 170.113528,40.5 171.75809,40.5 C172.481698,40.5 173.33687,40.4341463 174.323607,40.2365854 C175.112997,40.104878 175.836605,39.8414634 176.428647,39.5780488 C176.625995,39.5121951 176.75756,39.2487805 176.75756,38.9853659 L176.2313,36.0219512 Z" id="Path"></path>
                        <path d="M197.34748,26.2756098 C197.215915,26.2097561 197.08435,26.0780488 197.08435,25.8804878 C197.08435,25.6829268 197.150133,25.5512195 197.281698,25.4853659 C198.13687,24.9585366 198.794695,24.2341463 199.320955,23.3121951 C199.97878,22.1268293 200.307692,20.8097561 200.307692,19.4926829 C200.307692,18.6365854 200.176127,17.7804878 199.847215,16.9243902 C199.518302,16.0682927 199.123607,15.3439024 198.597347,14.6195122 C198.071088,13.9609756 197.34748,13.4341463 196.623873,12.9731707 C195.834483,12.5780488 194.97931,12.3146341 193.992573,12.3146341 L179.651989,12.3146341 C179.388859,12.3146341 179.125729,12.5780488 179.125729,12.8414634 L179.125729,39.5780488 C179.125729,39.8414634 179.388859,40.104878 179.651989,40.104878 L192.545358,40.104878 C193.795225,40.104878 194.913528,39.9731707 196.03183,39.6439024 C197.08435,39.3146341 198.071088,38.8536585 198.860477,38.2609756 C199.649867,37.6682927 200.307692,36.8780488 200.833952,36.0219512 C201.29443,35.1658537 201.55756,34.1121951 201.55756,32.9268293 C201.55756,31.0829268 201.097082,29.5682927 200.176127,28.3829268 C199.45252,27.4609756 198.531565,26.7365854 197.34748,26.2756098 Z M185.046154,28.3170732 L192.808488,28.3170732 C193.268966,28.3170732 193.66366,28.3829268 194.058355,28.5804878 C194.45305,28.7780488 194.781963,29.0414634 195.045093,29.3707317 C195.308223,29.7 195.571353,30.095122 195.702918,30.5560976 C195.900265,31.0170732 195.966048,31.4780488 195.966048,31.9390244 C195.966048,32.4 195.900265,32.8609756 195.702918,33.3219512 C195.50557,33.7829268 195.308223,34.1121951 194.97931,34.4414634 C194.650398,34.7707317 194.321485,35.0341463 193.861008,35.1658537 C193.466313,35.3634146 193.005836,35.4292683 192.479576,35.4292683 L184.980371,35.4292683 C184.717241,35.4292683 184.519894,35.2317073 184.519894,34.9682927 L184.519894,28.6463415 C184.651459,28.5146341 184.848806,28.3170732 185.046154,28.3170732 Z M194.058355,23.0487805 C193.400531,23.6414634 192.676923,23.9707317 191.755968,23.9707317 L185.046154,23.9707317 C184.783024,23.9707317 184.585676,23.7731707 184.585676,23.5097561 L184.585676,17.5170732 C184.585676,17.2536585 184.783024,17.0560976 185.046154,17.0560976 L191.953316,17.0560976 C192.545358,17.0560976 193.137401,17.2536585 193.597878,17.5170732 C194.518833,18.1756098 194.97931,19.1634146 194.97931,20.4804878 C194.97931,21.6 194.650398,22.4560976 194.058355,23.0487805 Z" id="Shape"></path>
                        <path d="M221.555438,22.4560976 C220.634483,21.4682927 219.51618,20.7439024 218.200531,20.1512195 C216.884881,19.5585366 215.371883,19.295122 213.727321,19.295122 C212.082759,19.295122 210.569761,19.5585366 209.188329,20.1512195 C207.872679,20.7439024 206.688594,21.5341463 205.767639,22.4560976 C204.846684,23.4439024 204.123077,24.5634146 203.596817,25.8804878 C203.070557,27.197561 202.87321,28.5804878 202.87321,30.0292683 C202.87321,31.4121951 203.13634,32.795122 203.662599,34.0463415 C204.188859,35.297561 204.912467,36.4829268 205.833422,37.404878 C206.754377,38.3926829 207.938462,39.1170732 209.254111,39.7097561 C210.569761,40.2365854 212.082759,40.5658537 213.727321,40.5658537 C216.029708,40.5658537 218.003183,40.0390244 219.647745,39.0512195 C221.09496,38.195122 222.213263,37.0756098 223.002653,35.7585366 C223.068435,35.6268293 223.068435,35.4292683 223.002653,35.297561 C222.93687,35.1658537 222.805305,35.0341463 222.67374,34.9682927 L219.187268,33.9804878 C219.121485,33.9804878 219.121485,33.9804878 219.055703,33.9804878 C218.858355,33.9804878 218.661008,34.1121951 218.595225,34.2439024 C218.266313,34.902439 217.674271,35.495122 216.884881,35.8902439 C215.963926,36.4170732 214.977188,36.6146341 213.990451,36.6146341 C213.332626,36.6146341 212.674801,36.4829268 212.082759,36.2853659 C211.490716,36.0219512 210.898674,35.6926829 210.438196,35.297561 C209.977719,34.8365854 209.517241,34.3097561 209.254111,33.7170732 C208.990981,33.2560976 208.859416,32.7292683 208.727851,32.1365854 C208.727851,32.004878 208.727851,31.8731707 208.859416,31.7414634 C208.925199,31.6097561 209.056764,31.6097561 209.188329,31.6097561 L223.98939,31.6097561 C224.25252,31.6097561 224.51565,31.4121951 224.51565,31.1487805 C224.51565,31.0170732 224.51565,30.9512195 224.51565,30.8195122 C224.51565,30.4902439 224.51565,30.1609756 224.51565,29.8317073 C224.51565,28.4487805 224.25252,27.1317073 223.792042,25.8146341 C223.134218,24.5634146 222.476393,23.4439024 221.555438,22.4560976 Z M218.858355,27.5926829 C218.858355,27.7243902 218.858355,27.8560976 218.72679,27.9878049 C218.661008,28.1195122 218.529443,28.1195122 218.397878,28.1195122 L208.925199,28.1195122 C208.793634,28.1195122 208.662069,28.0536585 208.596286,27.9878049 C208.530504,27.8560976 208.464721,27.7243902 208.464721,27.6585366 C208.530504,27.1317073 208.727851,26.604878 208.925199,26.1439024 C209.188329,25.5512195 209.583024,25.0243902 210.043501,24.5634146 C210.503979,24.102439 211.030239,23.7731707 211.622281,23.5097561 C212.214324,23.2463415 212.872149,23.1146341 213.595756,23.1146341 C214.977188,23.1146341 216.227056,23.5756098 217.213793,24.497561 C218.068966,25.3536585 218.595225,26.3414634 218.858355,27.5926829 Z" id="Shape"></path>
                        <path d="M246.618568,25.8146341 C246.15809,24.5634146 245.434483,23.3780488 244.513528,22.4560976 C243.592573,21.4682927 242.474271,20.7439024 241.158621,20.1512195 C239.842971,19.5585366 238.329973,19.295122 236.685411,19.295122 C235.040849,19.295122 233.527851,19.5585366 232.146419,20.1512195 C230.830769,20.7439024 229.646684,21.5341463 228.725729,22.4560976 C227.804775,23.4439024 227.081167,24.5634146 226.554907,25.8804878 C226.028647,27.197561 225.8313,28.5804878 225.8313,30.0292683 C225.8313,31.4121951 226.09443,32.795122 226.62069,34.0463415 C227.14695,35.297561 227.870557,36.4829268 228.791512,37.404878 C229.712467,38.3926829 230.896552,39.1170732 232.212202,39.7097561 C233.527851,40.2365854 235.040849,40.5658537 236.685411,40.5658537 C238.987798,40.5658537 240.961273,40.0390244 242.605836,39.0512195 C244.05305,38.195122 245.171353,37.0756098 245.960743,35.7585366 C246.026525,35.6268293 246.026525,35.4292683 245.960743,35.297561 C245.89496,35.1658537 245.763395,35.0341463 245.63183,34.9682927 L242.145358,33.9804878 C242.079576,33.9804878 242.079576,33.9804878 242.013793,33.9804878 C241.816446,33.9804878 241.619098,34.1121951 241.553316,34.2439024 C241.224403,34.902439 240.632361,35.495122 239.842971,35.8902439 C238.922016,36.4170732 237.935279,36.6146341 236.948541,36.6146341 C236.290716,36.6146341 235.632891,36.4829268 235.040849,36.2853659 C234.448806,36.0219512 233.856764,35.6926829 233.396286,35.297561 C232.935809,34.8365854 232.475332,34.3097561 232.212202,33.7170732 C231.949072,33.2560976 231.817507,32.7292683 231.685942,32.1365854 C231.685942,32.004878 231.685942,31.8731707 231.817507,31.7414634 C231.883289,31.6097561 232.014854,31.6097561 232.146419,31.6097561 L246.94748,31.6097561 C247.21061,31.6097561 247.47374,31.4121951 247.47374,31.1487805 C247.47374,31.0170732 247.47374,30.9512195 247.47374,30.8195122 C247.47374,30.4902439 247.47374,30.1609756 247.47374,29.8317073 C247.342175,28.4487805 247.079045,27.1317073 246.618568,25.8146341 Z M241.816446,27.5926829 C241.816446,27.7243902 241.816446,27.8560976 241.684881,27.9878049 C241.619098,28.1195122 241.487533,28.1195122 241.355968,28.1195122 L231.883289,28.1195122 C231.751724,28.1195122 231.620159,28.0536585 231.554377,27.9878049 C231.488594,27.8560976 231.422812,27.7243902 231.422812,27.6585366 C231.488594,27.1317073 231.685942,26.604878 231.883289,26.1439024 C232.146419,25.5512195 232.541114,25.0243902 233.001592,24.5634146 C233.462069,24.102439 233.988329,23.7731707 234.580371,23.5097561 C235.172414,23.2463415 235.830239,23.1146341 236.553846,23.1146341 C237.935279,23.1146341 239.185146,23.5756098 240.171883,24.497561 C241.027056,25.3536585 241.619098,26.3414634 241.816446,27.5926829 Z" id="Shape"></path>
                    </g>
                    <g id="Group" transform="translate(10.000000, 12.000000)">
                        <path d="M20.433871,0 C15.6725806,0 11.7048387,2.86956522 10.3822581,8.47826087 C10.25,9.13043478 10.7129032,9.7173913 11.3741935,9.7173913 L29.4274194,9.7173913 C30.0887097,9.7173913 30.6177419,9.06521739 30.4193548,8.47826087 C29.1629032,2.86956522 25.1951613,0 20.433871,0 Z" id="Path" fill="#F5C400"></path>
                        <path d="M21.4258065,26.5434783 L19.5080645,26.5434783 C18.5822581,26.5434783 18.1193548,27.6521739 18.7806452,28.3043478 C19.1774194,28.6956522 19.5080645,29.0217391 19.7725806,29.2826087 C20.1693548,29.673913 20.8306452,29.673913 21.2274194,29.2826087 C21.4919355,29.0217391 21.8225806,28.6956522 22.2193548,28.3043478 C22.8145161,27.6521739 22.3516129,26.5434783 21.4258065,26.5434783 Z" id="Path" fill="#F5C400"></path>
                        <path d="M14.8790323,23.2173913 L26.0548387,23.2173913 C26.3854839,23.2173913 26.716129,23.0869565 26.9145161,22.7608696 C27.2451613,22.3043478 27.5758065,21.8478261 27.8403226,21.3913043 C28.3032258,20.673913 27.7741935,19.826087 26.9806452,19.826087 L13.9532258,19.826087 C13.1596774,19.826087 12.6306452,20.7391304 13.0935484,21.3913043 C13.4241935,21.8478261 13.6887097,22.3695652 14.0193548,22.7608696 C14.2177419,23.0869565 14.4822581,23.2173913 14.8790323,23.2173913 Z" id="Path" fill="#F5C400"></path>
                        <path d="M23.8064516,15.3913043 L23.8064516,14.0869565 C23.8064516,13.5 23.3435484,13.0434783 22.7483871,13.0434783 L18.0532258,13.0434783 C17.4580645,13.0434783 16.9951613,13.5 16.9951613,14.0869565 L16.9951613,15.3913043 C16.9951613,15.9782609 17.4580645,16.4347826 18.0532258,16.4347826 L22.7483871,16.4347826 C23.3435484,16.4347826 23.8064516,15.9782609 23.8064516,15.3913043 Z" id="Path" fill="#F5C400"></path>
                        <g transform="translate(0.000000, 13.043478)" fill="#FFFFFF" id="Path">
                            <path d="M12.8951613,0 L4.76129032,0 C2.51290323,0 0.529032258,1.69565217 0.462903226,3.97826087 C0.330645161,6.39130435 2.2483871,8.34782609 4.69516129,8.34782609 C8.3983871,8.34782609 12.0354839,4.10869565 13.8209677,1.69565217 C14.283871,0.97826087 13.7548387,0 12.8951613,0 Z"></path>
                            <path d="M27.9725806,0 L36.1064516,0 C38.3548387,0 40.3387097,1.69565217 40.4048387,3.97826087 C40.5370968,6.39130435 38.6193548,8.34782609 36.1725806,8.34782609 C32.4693548,8.34782609 28.8322581,4.10869565 27.0467742,1.69565217 C26.583871,0.97826087 27.1129032,0 27.9725806,0 Z"></path>
                        </g>
                    </g>
                </g>
            </g>
        </g>
    </g>
</svg>