<svg width="77" height="25" viewBox="0 0 77 25" fill="none" xmlns="http://www.w3.org/2000/svg">
<path d="M33.2695 2.08984C33.3711 2.17578 33.4629 2.27344 33.5449 2.38281C33.627 2.48828 33.6797 2.61523 33.7031 2.76367C33.7305 2.92773 33.6719 3.05273 33.5273 3.13867C33.4414 3.18164 33.3574 3.1875 33.2754 3.15625C33.1934 3.125 33.1348 3.0625 33.0996 2.96875C33.0059 2.71094 32.8633 2.50781 32.6719 2.35938C32.4844 2.20703 32.2793 2.07422 32.0566 1.96094C31.5645 1.70312 31.0566 1.49414 30.5332 1.33398C30.0098 1.16992 29.4824 1.02734 28.9512 0.90625C28.0645 0.71875 26.8828 0.597656 25.4062 0.542969C23.9336 0.484375 22.293 0.505859 20.4844 0.607422C18.6758 0.705078 16.8242 0.898437 14.9297 1.1875C13.0352 1.47266 11.2207 1.86719 9.48633 2.37109C7.75586 2.87109 6.23438 3.49609 4.92188 4.24609C3.61328 4.99219 2.63672 5.87305 1.99219 6.88867C1.45312 7.77148 1.3457 8.70312 1.66992 9.68359C1.9043 10.3555 2.24023 10.9668 2.67773 11.5176C3.33008 12.3418 4.05273 13.0977 4.8457 13.7852C5.51367 14.3945 6.1875 15.0039 6.86719 15.6133C7.52734 16.1992 8.18945 16.793 8.85352 17.3945C9.5918 18.0742 10.3184 18.7617 11.0332 19.457C11.0996 19.5234 11.168 19.5879 11.2383 19.6504C11.625 20.0098 11.9648 20.4082 12.2578 20.8457C12.5586 21.3457 12.6152 21.7324 12.4277 22.0059C12.2441 22.2832 11.8926 22.4707 11.373 22.5684C10.8535 22.666 10.25 22.6953 9.5625 22.6562C8.875 22.6211 8.18164 22.5352 7.48242 22.3984C6.78711 22.2656 6.16797 22.1055 5.625 21.918C5.08594 21.7305 4.70508 21.5371 4.48242 21.3379C4.03711 20.9238 4.00781 20.4863 4.39453 20.0254C4.8125 19.5527 5.32227 19.209 5.92383 18.9941C6.79492 18.6582 7.67578 18.6309 8.56641 18.9121C8.73828 18.9746 8.90234 19.0566 9.05859 19.1582C9.07422 19.166 9.08789 19.1758 9.09961 19.1875C9.14258 19.2109 9.17188 19.2461 9.1875 19.293C9.20312 19.3398 9.19531 19.3906 9.16406 19.4453C9.09375 19.5312 9.00781 19.5566 8.90625 19.5215C8.80859 19.4863 8.7168 19.4434 8.63086 19.3926C8.01367 19.084 7.37891 19.0195 6.72656 19.1992C6.07422 19.3789 5.52344 19.7344 5.07422 20.2656C4.87891 20.5234 4.86914 20.748 5.04492 20.9395C5.2207 21.1348 5.48828 21.2988 5.84766 21.4316C6.21094 21.5684 6.57422 21.6738 6.9375 21.748C7.30469 21.8262 7.57812 21.8789 7.75781 21.9062C7.79297 21.9062 7.81836 21.9102 7.83398 21.918C7.86914 21.918 7.91211 21.9219 7.96289 21.9297C8.19336 21.9805 8.50781 22.0332 8.90625 22.0879C9.30859 22.1465 9.72266 22.1855 10.1484 22.2051C10.5742 22.2285 10.9395 22.2012 11.2441 22.123C11.5488 22.0449 11.7207 21.8945 11.7598 21.6719C11.7988 21.4492 11.6289 21.1191 11.25 20.6816C10.8477 20.2168 10.4219 19.7656 9.97266 19.3281C8.85547 18.2461 7.70898 17.1973 6.5332 16.1816C6.11133 15.8027 5.68945 15.4238 5.26758 15.0449C4.56445 14.4121 3.87305 13.7637 3.19336 13.0996C2.56445 12.4902 2.00977 11.8203 1.5293 11.0898C1.18555 10.5586 0.945312 9.98633 0.808594 9.37305C0.601562 8.36914 0.787109 7.44141 1.36523 6.58984C1.99805 5.63672 2.91602 4.79297 4.11914 4.05859C5.32227 3.32422 6.7168 2.69727 8.30273 2.17773C9.88867 1.6582 11.5781 1.23828 13.3711 0.917969C15.1641 0.59375 16.9746 0.365234 18.8027 0.232422C20.6348 0.0957031 22.3906 0.0488281 24.0703 0.0917969C25.75 0.134766 27.2695 0.261719 28.6289 0.472656C29.9922 0.683594 31.1094 0.974609 31.9805 1.3457C32.4414 1.52539 32.8711 1.77344 33.2695 2.08984ZM16.3008 15.9238C16.2148 15.959 16.125 15.9883 16.0312 16.0117C16.0078 16.0234 15.9863 16.0332 15.9668 16.041C15.873 16.0762 15.7793 16.1094 15.6855 16.1406C15.4199 16.2266 15.1484 16.3184 14.8711 16.416C14.6641 16.4746 14.502 16.6035 14.3848 16.8027C14.1934 17.1113 13.9531 17.3516 13.6641 17.5234C13.3789 17.6953 13.0879 17.8184 12.791 17.8926C12.4941 17.9629 12.2305 18.0078 12 18.0273C11.7734 18.043 11.627 18.0469 11.5605 18.0391C11.5527 18.0391 11.543 18.0391 11.5312 18.0391C11.4375 18.0977 11.3438 18.2129 11.25 18.3848C11.1562 18.5566 11.0742 18.7109 11.0039 18.8477C10.9883 18.8828 10.9766 18.9141 10.9688 18.9414C10.582 19.7148 10.1992 20.4883 9.82031 21.2617C9.60547 21.6914 9.39062 22.1211 9.17578 22.5508C9.10547 22.7031 9.02344 22.8496 8.92969 22.9902C8.84375 23.0996 8.73633 23.1211 8.60742 23.0547C8.52148 22.9922 8.5 22.9062 8.54297 22.7969C8.58594 22.6836 8.63281 22.5703 8.68359 22.457C9.35547 20.8672 10.0684 19.2949 10.8223 17.7402C11.0566 17.2598 11.2773 16.7695 11.4844 16.2695C11.5781 16.0391 11.6758 15.8027 11.7773 15.5605C11.7852 15.5371 11.7988 15.5117 11.8184 15.4844C11.8691 15.3555 11.9297 15.2305 12 15.1094C12.0312 15.0664 12.0898 15.0391 12.1758 15.0273C12.2617 15.0156 12.3359 15.0273 12.3984 15.0625C12.4766 15.1133 12.5156 15.1895 12.5156 15.291C12.5156 15.3418 12.5059 15.3945 12.4863 15.4492C12.4707 15.4922 12.4609 15.5352 12.457 15.5781C12.4531 15.6211 12.4668 15.6641 12.498 15.707C12.5605 15.7148 12.6152 15.707 12.6621 15.6836C12.709 15.6562 12.7539 15.625 12.7969 15.5898C12.8398 15.5547 12.8906 15.5293 12.9492 15.5137C12.9844 15.4941 13.0195 15.4766 13.0547 15.4609C13.2422 15.375 13.4277 15.3008 13.6113 15.2383C13.8496 15.1641 14.0859 15.1816 14.3203 15.291C14.4219 15.3535 14.498 15.4297 14.5488 15.5195C14.5996 15.6094 14.6387 15.7051 14.666 15.8066C14.6934 15.8848 14.7637 15.9258 14.877 15.9297C14.9941 15.9336 15.123 15.9199 15.2637 15.8887C15.4082 15.8535 15.5391 15.8184 15.6562 15.7832C15.7539 15.7559 15.8242 15.7383 15.8672 15.7305C15.9844 15.7031 16.1035 15.6953 16.2246 15.707C16.2598 15.707 16.291 15.7129 16.3184 15.7246C16.3496 15.7363 16.3652 15.7676 16.3652 15.8184C16.3652 15.8379 16.3594 15.8594 16.3477 15.8828C16.3359 15.9023 16.3203 15.916 16.3008 15.9238ZM13.8398 16.3105C13.918 16.2598 13.9648 16.1758 13.9805 16.0586C14 15.9414 13.9883 15.8281 13.9453 15.7188C13.9258 15.6836 13.8984 15.6602 13.8633 15.6484C13.832 15.6328 13.7988 15.625 13.7637 15.625C13.6934 15.6367 13.625 15.6582 13.5586 15.6895C12.8359 16.0527 12.252 16.5684 11.8066 17.2363C11.7207 17.3926 11.7305 17.4629 11.8359 17.4473C11.9453 17.4277 12.1074 17.3613 12.3223 17.248C12.5371 17.1309 12.7598 16.998 12.9902 16.8496C13.2207 16.6973 13.418 16.5684 13.582 16.4629C13.7305 16.3691 13.8164 16.3184 13.8398 16.3105ZM19.8633 16.5801C19.5195 16.7285 19.2051 16.7637 18.9199 16.6855C18.791 16.6504 18.6719 16.6504 18.5625 16.6855C18.457 16.7207 18.3281 16.832 18.1758 17.0195C17.7695 17.5 17.2871 17.7715 16.7285 17.834C16.3184 17.8652 16.0469 17.7852 15.9141 17.5938C15.7812 17.3984 15.7363 17.1504 15.7793 16.8496C15.8105 16.5488 15.9121 16.2637 16.084 15.9941C16.2559 15.7246 16.4805 15.4727 16.7578 15.2383C16.9648 15.0664 17.1758 14.998 17.3906 15.0332C17.5 15.0332 17.5723 15.0723 17.6074 15.1504C17.623 15.2012 17.6133 15.2461 17.5781 15.2852C17.5469 15.3242 17.5059 15.3613 17.4551 15.3965C17.0254 15.7402 16.7461 16.1445 16.6172 16.6094C16.5469 16.832 16.5469 17.0332 16.6172 17.2129C16.6758 17.3574 16.7988 17.3789 16.9863 17.2773C17.1777 17.1562 17.3652 16.9883 17.5488 16.7734C17.7324 16.5586 17.8672 16.3398 17.9531 16.1172C18.0391 15.8945 18.0449 15.6973 17.9707 15.5254C17.9082 15.4629 17.8516 15.416 17.8008 15.3848C17.7734 15.3652 17.748 15.3477 17.7246 15.332C17.7051 15.3125 17.7012 15.291 17.7129 15.2676C17.7441 15.1113 17.8301 15 17.9707 14.9336C18.1152 14.8633 18.2754 14.8281 18.4512 14.8281C18.627 14.8281 18.7793 14.8633 18.9082 14.9336C19.0371 15 19.1016 15.1016 19.1016 15.2383C19.0938 15.4102 19.0508 15.582 18.9727 15.7539C18.9219 15.9023 18.9473 16.0156 19.0488 16.0938C19.2754 16.2969 19.6328 16.2617 20.1211 15.9883L20.1855 15.9238C20.3223 15.7363 20.4902 15.5605 20.6895 15.3965C20.8691 15.2402 21.0625 15.1758 21.2695 15.2031C21.3555 15.2031 21.416 15.2422 21.4512 15.3203C21.459 15.3633 21.4473 15.4043 21.416 15.4434C21.3848 15.4785 21.3535 15.5098 21.3223 15.5371H21.3047C20.9453 15.8223 20.6973 16.1836 20.5605 16.6211C20.498 16.8086 20.498 16.9844 20.5605 17.1484C20.6113 17.2852 20.7188 17.3066 20.8828 17.2129C21.0625 17.0996 21.2344 16.9512 21.3984 16.7676C21.5625 16.584 21.6816 16.3906 21.7559 16.1875C21.834 15.9844 21.834 15.8066 21.7559 15.6543C21.7129 15.5918 21.666 15.5488 21.6152 15.5254C21.5918 15.5176 21.5703 15.5059 21.5508 15.4902C21.5352 15.4707 21.5312 15.4473 21.5391 15.4199C21.5742 15.291 21.6543 15.1953 21.7793 15.1328C21.9043 15.0664 22.0449 15.0332 22.2012 15.0332C22.3613 15.0332 22.4941 15.0645 22.5996 15.127C22.709 15.1855 22.7676 15.2754 22.7754 15.3965C22.7676 15.5488 22.7285 15.7031 22.6582 15.8594C22.627 15.9883 22.6543 16.0879 22.7402 16.1582C22.9277 16.3379 23.1855 16.4023 23.5137 16.3516C23.6426 16.332 23.7656 16.2988 23.8828 16.252C24.0039 16.2051 24.1172 16.1602 24.2227 16.1172C24.3672 16.0586 24.5 16.0117 24.6211 15.9766C24.7227 15.957 24.7812 15.959 24.7969 15.9824C24.8164 16.002 24.8125 16.043 24.7852 16.1055C24.7422 16.1992 24.6816 16.2812 24.6035 16.3516C24.5293 16.418 24.3848 16.502 24.1699 16.6035C23.9551 16.7012 23.7168 16.7656 23.4551 16.7969C23.1934 16.8242 22.9121 16.7871 22.6113 16.6855C22.5059 16.6504 22.4043 16.6484 22.3066 16.6797C22.209 16.707 22.0898 16.8066 21.9492 16.9785C21.5977 17.4004 21.168 17.6426 20.6602 17.7051C20.3008 17.7363 20.0605 17.666 19.9395 17.4941C19.8184 17.3223 19.7715 17.0957 19.7988 16.8145C19.8145 16.7363 19.8359 16.6582 19.8633 16.5801ZM24.9961 16.3633C24.8438 16.75 24.6816 17.1367 24.5098 17.5234C24.2441 18.1406 23.9395 18.7422 23.5957 19.3281C23.3535 19.7383 23.0586 20.0293 22.7109 20.2012C22.3633 20.373 21.9746 20.4551 21.5449 20.4473C21.1738 20.4395 20.8633 20.3066 20.6133 20.0488C20.582 20.0137 20.5605 19.9746 20.5488 19.9316C20.5332 19.8887 20.5391 19.8457 20.5664 19.8027C20.5977 19.7598 20.6406 19.7363 20.6953 19.7324C20.7461 19.7285 20.793 19.7344 20.8359 19.75C20.8945 19.7695 20.9551 19.7969 21.0176 19.832C21.0605 19.8555 21.1035 19.877 21.1465 19.8965C21.4473 20.0254 21.7383 20.0469 22.0195 19.9609C22.2969 19.875 22.5371 19.6816 22.7402 19.3809C22.9473 19.0801 23.1289 18.7695 23.2852 18.4492C23.293 18.4336 23.3008 18.4219 23.3086 18.4141C23.6523 17.7422 23.9531 17.0586 24.2109 16.3633C24.2539 16.25 24.2598 16.1699 24.2285 16.123C24.2012 16.0762 24.1309 16.0449 24.0176 16.0293C23.9668 16.0176 23.916 16.0117 23.8652 16.0117C23.8223 16.0039 23.7793 16 23.7363 16C23.6855 15.9922 23.6426 15.9766 23.6074 15.9531C23.5723 15.9258 23.5625 15.8809 23.5781 15.8184C23.5898 15.7676 23.6172 15.7305 23.6602 15.707C23.7031 15.6797 23.75 15.6621 23.8008 15.6543C23.8086 15.6543 23.8203 15.6543 23.8359 15.6543C23.9648 15.627 24.0938 15.6094 24.2227 15.6016C24.3438 15.6016 24.4336 15.5723 24.4922 15.5137C24.5547 15.4512 24.6074 15.3652 24.6504 15.2559C24.8926 14.584 25.1465 13.9121 25.4121 13.2402C25.6934 12.502 26.0273 11.7812 26.4141 11.0781C26.5781 10.7578 26.7891 10.4746 27.0469 10.2285C27.1836 10.1074 27.3301 10.0137 27.4863 9.94727C27.6426 9.87695 27.8105 9.85352 27.9902 9.87695C28.0254 9.87695 28.0566 9.88867 28.084 9.91211C28.1152 9.93164 28.1387 9.95508 28.1543 9.98242C28.1816 10.041 28.1758 10.0859 28.1367 10.1172C28.0977 10.1484 28.0566 10.1719 28.0137 10.1875C27.8066 10.2734 27.6406 10.3926 27.5156 10.5449C27.3945 10.6934 27.2852 10.8574 27.1875 11.0371C26.8008 11.7598 26.459 12.4941 26.1621 13.2402C25.8691 13.9824 25.5938 14.7344 25.3359 15.4961C25.5078 15.5938 25.6836 15.6426 25.8633 15.6426C25.9414 15.6504 26.0234 15.6621 26.1094 15.6777C26.125 15.6855 26.1465 15.6895 26.1738 15.6895C26.2168 15.7012 26.2598 15.7148 26.3027 15.7305C26.3184 15.7383 26.334 15.752 26.3496 15.7715C26.3691 15.7871 26.375 15.8027 26.3672 15.8184C26.3672 15.8457 26.3574 15.8711 26.3379 15.8945C26.3223 15.9141 26.3047 15.9277 26.2852 15.9355C26.082 15.998 25.877 16.0234 25.6699 16.0117C25.6191 16.0117 25.5625 16.0117 25.5 16.0117C25.25 16.0039 25.082 16.1211 24.9961 16.3633ZM66.9258 11.0898C66.6328 11.1172 66.3359 11.1426 66.0352 11.166C65.7617 11.1934 65.4863 11.2188 65.209 11.2422C63.2168 11.4492 61.2324 11.7168 59.2559 12.0449C56.9863 12.4043 54.7207 12.834 52.459 13.334C52.0645 13.4199 51.6992 13.5781 51.3633 13.8086C48.668 15.6055 45.8867 17.2227 43.0195 18.6602C40.1523 20.0938 37.2109 21.377 34.1953 22.5098C32.8789 23.0254 31.5391 23.459 30.1758 23.8105C29.5469 23.9746 28.9062 24.0781 28.2539 24.1211C28.168 24.1289 28.082 24.1328 27.9961 24.1328C27.7031 24.1445 27.4238 24.0977 27.1582 23.9922C26.7441 23.8125 26.6191 23.5117 26.7832 23.0898C26.9121 22.7891 27.1016 22.5234 27.3516 22.293C27.8398 21.8125 28.3809 21.4004 28.9746 21.0566C30.4355 20.1973 31.9473 19.4395 33.5098 18.7832C35.0566 18.1152 36.625 17.502 38.2148 16.9434C38.2578 16.9355 38.2969 16.9219 38.332 16.9023C38.3828 16.8789 38.4395 16.8574 38.502 16.8379C38.7324 16.7715 38.8867 16.6172 38.9648 16.375C39.1016 16.0156 39.2441 15.6582 39.3926 15.3027C39.416 15.2441 39.4414 15.1797 39.4688 15.1094C39.793 14.3047 40.123 13.4941 40.459 12.6777C41.0879 11.1387 41.7148 9.5957 42.3398 8.04883C42.7539 7.07617 43.0859 6.07422 43.3359 5.04297C43.3516 4.94922 43.3809 4.85547 43.4238 4.76172C43.502 4.64844 43.6055 4.60938 43.7344 4.64453C43.7852 4.62891 43.8418 4.62891 43.9043 4.64453C43.9551 4.65234 43.9961 4.67383 44.0273 4.70898C44.0625 4.74414 44.0801 4.78711 44.0801 4.83789C44.0918 4.99414 44.084 5.14453 44.0566 5.28906C43.8691 6.19922 43.5898 7.08398 43.2188 7.94336C42.582 9.49023 41.9414 11.041 41.2969 12.5957C41.0391 13.2324 40.7773 13.8691 40.5117 14.5059C40.4609 14.627 40.4102 14.748 40.3594 14.8691C40.2031 15.2559 40.043 15.6465 39.8789 16.041C39.8711 16.0566 39.8672 16.0684 39.8672 16.0762C39.8398 16.1191 39.8242 16.1602 39.8203 16.1992C39.8164 16.2383 39.8359 16.2754 39.8789 16.3105C39.8867 16.3184 39.9004 16.3262 39.9199 16.334C39.9355 16.3262 39.957 16.3184 39.9844 16.3105C39.9922 16.3105 40 16.3105 40.0078 16.3105C40.4141 16.1816 40.8145 16.0527 41.209 15.9238C41.9121 15.6934 42.6113 15.4648 43.3066 15.2383C45.7832 14.4766 48.2812 13.8105 50.8008 13.2402C51.1016 13.1738 51.375 13.0547 51.6211 12.8828C52.3359 12.375 53.0391 11.8555 53.7305 11.3242C54.4219 10.7891 55.0859 10.2246 55.7227 9.63086C56.418 9.00586 57.0488 8.31445 57.6152 7.55664C57.9512 7.11914 58.2051 6.63477 58.377 6.10352C58.6113 5.28711 58.4609 4.56836 57.9258 3.94727C57.7305 3.7168 57.5098 3.51953 57.2637 3.35547C57.0176 3.19141 56.7578 3.04883 56.4844 2.92773C55.5469 2.52539 54.5703 2.26758 53.5547 2.1543C52.6719 2.04492 51.7871 1.99023 50.9004 1.99023C50.0918 1.99023 49.2852 2.02344 48.4805 2.08984C46.4062 2.25391 44.3555 2.56836 42.3281 3.0332C40.9453 3.33398 39.5898 3.70898 38.2617 4.1582C36.9336 4.60352 35.6426 5.16602 34.3887 5.8457C33.9238 6.08398 33.4746 6.3457 33.041 6.63086C32.6074 6.91211 32.1934 7.2207 31.7988 7.55664C31.498 7.83398 31.2188 8.12695 30.9609 8.43555C30.7695 8.64258 30.6309 8.88281 30.5449 9.15625C30.4082 9.57812 30.5 9.93945 30.8203 10.2402C31.0156 10.4277 31.2422 10.5684 31.5 10.6621C31.9375 10.8457 32.3926 10.9531 32.8652 10.9844C33.1152 11.0039 33.3691 11.0176 33.627 11.0254C33.9707 11.041 34.3145 11.0586 34.6582 11.0781C34.9355 11.0938 35.207 11.1191 35.4727 11.1543C35.5078 11.1621 35.5371 11.1797 35.5605 11.207C35.5879 11.2305 35.6094 11.2598 35.625 11.2949C35.6328 11.3652 35.6152 11.4121 35.5723 11.4355C35.5293 11.4551 35.4863 11.4609 35.4434 11.4531H35.3672C35.3438 11.4531 35.3184 11.4531 35.291 11.4531C35.041 11.4414 34.7969 11.4355 34.5586 11.4355C34.4805 11.4355 34.4023 11.4355 34.3242 11.4355C34.2031 11.4355 34.0781 11.4355 33.9492 11.4355H33.9375C33.5859 11.4355 33.2383 11.4277 32.8945 11.4121C32.5508 11.3965 32.207 11.3535 31.8633 11.2832C31.4766 11.1973 31.1016 11.0684 30.7383 10.8965C30.543 10.8027 30.3594 10.6875 30.1875 10.5508C29.6719 10.1211 29.543 9.58398 29.8008 8.93945C29.9805 8.51758 30.2383 8.14648 30.5742 7.82617C31.0117 7.37305 31.4922 6.96484 32.0156 6.60156C33.4414 5.625 34.959 4.83594 36.5684 4.23438C37.8652 3.73438 39.1816 3.31445 40.5176 2.97461C41.8535 2.63477 43.2051 2.35352 44.5723 2.13086C46.6777 1.75977 48.7969 1.57031 50.9297 1.5625C50.9961 1.5625 51.0645 1.5625 51.1348 1.5625C51.9434 1.5625 52.748 1.60352 53.5488 1.68555C54.3535 1.76758 55.1465 1.91992 55.9277 2.14258C56.5723 2.32227 57.1836 2.58008 57.7617 2.91602C58.0625 3.0957 58.332 3.31055 58.5703 3.56055C59.3633 4.38477 59.5527 5.34766 59.1387 6.44922C58.9512 6.9375 58.6934 7.39258 58.3652 7.81445C57.7637 8.60742 57.0938 9.33398 56.3555 9.99414C55.4531 10.8105 54.5117 11.5801 53.5312 12.3027C53.5039 12.3262 53.4688 12.3477 53.4258 12.3672C53.375 12.4023 53.3242 12.4414 53.2734 12.4844C53.2227 12.5273 53.1875 12.5859 53.168 12.6602C53.2031 12.6875 53.2344 12.7012 53.2617 12.7012C53.3047 12.6934 53.3477 12.6855 53.3906 12.6777C53.4336 12.6582 53.4766 12.6445 53.5195 12.6367C56.0547 12.1211 58.5977 11.6953 61.1484 11.3594C62.3789 11.207 63.6035 11.0664 64.8223 10.9375C65.2441 10.8945 65.6621 10.8516 66.0762 10.8086C66.2207 10.7891 66.3711 10.7793 66.5273 10.7793C66.6719 10.7715 66.8164 10.7852 66.9609 10.8203C66.9805 10.8281 66.998 10.8438 67.0137 10.8672C67.0332 10.8867 67.043 10.9043 67.043 10.9199C67.0508 10.9746 67.041 11.0156 67.0137 11.043C66.9902 11.0664 66.9609 11.082 66.9258 11.0898ZM37.6758 20.5C37.6758 20.5 37.6797 20.5 37.6875 20.5C37.75 20.4727 37.8086 20.4375 37.8633 20.3945C37.918 20.3516 37.9551 20.293 37.9746 20.2188C37.9551 20.2188 37.9414 20.2188 37.9336 20.2188C37.7617 20.2266 37.6523 20.2031 37.6055 20.1484C37.5586 20.0977 37.5566 20 37.5996 19.8555C37.623 19.7617 37.6562 19.668 37.6992 19.5742C37.7109 19.5469 37.7207 19.5254 37.7285 19.5098C37.7949 19.3379 37.8594 19.1699 37.9219 19.0059C38.0742 18.6348 38.2207 18.2598 38.3613 17.8809C38.3691 17.8652 38.3809 17.8438 38.3965 17.8164C38.4238 17.7578 38.4414 17.7012 38.4492 17.6465C38.457 17.5879 38.4434 17.5293 38.4082 17.4707C38.4004 17.4707 38.3926 17.4707 38.3848 17.4707C38.3418 17.4785 38.3027 17.4922 38.2676 17.5117C38.2441 17.5195 38.2227 17.5273 38.2031 17.5352C37.1133 17.9297 36.0352 18.3477 34.9688 18.7891C33.9023 19.2266 32.8496 19.7031 31.8105 20.2188C30.9668 20.6211 30.1504 21.0723 29.3613 21.5723C28.9043 21.8457 28.4883 22.1719 28.1133 22.5508C27.9062 22.7383 27.75 22.9648 27.6445 23.2305C27.6133 23.3164 27.6152 23.3984 27.6504 23.4766C27.6895 23.5547 27.7578 23.6074 27.8555 23.6348C27.9648 23.666 28.0801 23.6816 28.2012 23.6816C28.3301 23.6816 28.459 23.6699 28.5879 23.6465C29.4199 23.498 30.2441 23.291 31.0605 23.0254C32.834 22.459 34.5801 21.8145 36.2988 21.0918C36.7598 20.9043 37.2188 20.707 37.6758 20.5ZM49.5996 14.2246C49.6074 14.2051 49.6211 14.1914 49.6406 14.1836C49.6719 14.168 49.6953 14.1465 49.7109 14.1191C49.7305 14.0918 49.7285 14.0527 49.7051 14.002C49.6621 14.0098 49.6133 14.0234 49.5586 14.043C49.2695 14.1211 48.9824 14.1934 48.6973 14.2598C47.916 14.4668 47.1387 14.6777 46.3652 14.8926C44.2168 15.4941 42.0859 16.1602 39.9727 16.8906C39.7891 16.9492 39.6348 17.0312 39.5098 17.1367C39.3887 17.2383 39.3008 17.3848 39.2461 17.5762C39.2148 17.6699 39.1777 17.7637 39.1348 17.8574C39.1074 17.9004 39.0859 17.9434 39.0703 17.9863C39.0156 18.1152 38.9297 18.2949 38.8125 18.5254C38.6914 18.7598 38.5703 19.0059 38.4492 19.2637C38.3281 19.5215 38.2441 19.7422 38.1973 19.9258C38.1504 20.1094 38.1699 20.2148 38.2559 20.2422C38.377 20.2148 38.4883 20.168 38.5898 20.1016C38.6406 20.0742 38.6934 20.0488 38.748 20.0254C41.0762 19.002 43.3535 17.8672 45.5801 16.6211C46.4629 16.1133 47.3379 15.5977 48.2051 15.0742C48.584 14.8398 48.9629 14.6113 49.3418 14.3887C49.3496 14.3809 49.3574 14.377 49.3652 14.377C49.4512 14.334 49.5293 14.2832 49.5996 14.2246ZM55.6641 16.75C55.4375 16.9727 55.1738 17.1641 54.873 17.3242C54.5723 17.4805 54.3203 17.584 54.1172 17.6348C53.9141 17.6816 53.7051 17.709 53.4902 17.7168C53.1465 17.7324 52.8301 17.6855 52.541 17.5762C52.0684 17.3848 51.9043 17.0195 52.0488 16.4805C52.1855 16.0156 52.4629 15.6523 52.8809 15.3906C53.2988 15.1289 53.7305 15.002 54.1758 15.0098C54.1758 15.0098 54.1797 15.0098 54.1875 15.0098C54.3008 15.002 54.4082 15.0098 54.5098 15.0332C54.6816 15.0957 54.791 15.1973 54.8379 15.3379C54.8848 15.4785 54.8535 15.6348 54.7441 15.8066C54.4941 16.1855 54.1543 16.3965 53.7246 16.4395C53.4395 16.4668 53.1641 16.4531 52.8984 16.3984C52.8477 16.3906 52.8027 16.4043 52.7637 16.4395C52.7246 16.4746 52.7012 16.5176 52.6934 16.5684C52.6152 16.9043 52.7188 17.1191 53.0039 17.2129C53.3555 17.334 53.7207 17.334 54.0996 17.2129C54.5371 17.0762 54.9531 16.8184 55.3477 16.4395C55.7422 16.0605 55.9688 15.8848 56.0273 15.9121C56.0898 15.9355 56.1094 16.0078 56.0859 16.1289C56.0312 16.3203 55.8906 16.5273 55.6641 16.75ZM53.168 15.8066C53.1445 15.834 53.127 15.8652 53.1152 15.9004C53.1074 15.9316 53.1211 15.9609 53.1562 15.9883C53.293 16.0664 53.4414 16.0957 53.6016 16.0762C53.7617 16.0527 53.8965 15.9922 54.0059 15.8945C54.1191 15.793 54.168 15.6699 54.1523 15.5254C54.1406 15.4746 54.1133 15.4434 54.0703 15.4316C54.0273 15.416 53.9844 15.4121 53.9414 15.4199C53.6523 15.4707 53.3945 15.5996 53.168 15.8066ZM56.5312 16.3633C56.3789 16.75 56.2168 17.1367 56.0449 17.5234C55.7793 18.1406 55.4746 18.7422 55.1309 19.3281C54.8887 19.7383 54.5938 20.0293 54.2461 20.2012C53.8984 20.373 53.5098 20.4551 53.0801 20.4473C52.709 20.4395 52.3984 20.3066 52.1484 20.0488C52.1172 20.0137 52.0957 19.9746 52.084 19.9316C52.0684 19.8887 52.0742 19.8457 52.1016 19.8027C52.1328 19.7598 52.1758 19.7363 52.2305 19.7324C52.2812 19.7285 52.3281 19.7344 52.3711 19.75C52.4297 19.7695 52.4902 19.7969 52.5527 19.832C52.5957 19.8555 52.6387 19.877 52.6816 19.8965C52.9824 20.0254 53.2734 20.0469 53.5547 19.9609C53.832 19.875 54.0723 19.6816 54.2754 19.3809C54.4824 19.0801 54.6641 18.7695 54.8203 18.4492C54.8281 18.4336 54.8359 18.4219 54.8438 18.4141C55.1875 17.7422 55.4883 17.0586 55.7461 16.3633C55.7891 16.25 55.7949 16.1699 55.7637 16.123C55.7363 16.0762 55.666 16.0449 55.5527 16.0293C55.502 16.0176 55.4512 16.0117 55.4004 16.0117C55.3574 16.0039 55.3145 16 55.2715 16C55.2207 15.9922 55.1777 15.9766 55.1426 15.9531C55.1074 15.9258 55.0977 15.8809 55.1133 15.8184C55.125 15.7676 55.1523 15.7305 55.1953 15.707C55.2383 15.6797 55.2852 15.6621 55.3359 15.6543C55.3438 15.6543 55.3555 15.6543 55.3711 15.6543C55.5 15.627 55.6289 15.6094 55.7578 15.6016C55.8789 15.6016 55.9688 15.5723 56.0273 15.5137C56.0898 15.4512 56.1426 15.3652 56.1855 15.2559C56.4277 14.584 56.6816 13.9121 56.9473 13.2402C57.2285 12.502 57.5625 11.7812 57.9492 11.0781C58.1133 10.7578 58.3242 10.4746 58.582 10.2285C58.7188 10.1074 58.8652 10.0137 59.0215 9.94727C59.1777 9.87695 59.3457 9.85352 59.5254 9.87695C59.5605 9.87695 59.5918 9.88867 59.6191 9.91211C59.6504 9.93164 59.6738 9.95508 59.6895 9.98242C59.7168 10.041 59.7109 10.0859 59.6719 10.1172C59.6328 10.1484 59.5918 10.1719 59.5488 10.1875C59.3418 10.2734 59.1758 10.3926 59.0508 10.5449C58.9297 10.6934 58.8203 10.8574 58.7227 11.0371C58.3359 11.7598 57.9941 12.4941 57.6973 13.2402C57.4043 13.9824 57.1289 14.7344 56.8711 15.4961C57.043 15.5938 57.2188 15.6426 57.3984 15.6426C57.4766 15.6504 57.5586 15.6621 57.6445 15.6777C57.6602 15.6855 57.6816 15.6895 57.709 15.6895C57.752 15.7012 57.7949 15.7148 57.8379 15.7305C57.8535 15.7383 57.8691 15.752 57.8848 15.7715C57.9043 15.7871 57.9102 15.8027 57.9023 15.8184C57.9023 15.8457 57.8926 15.8711 57.873 15.8945C57.8574 15.9141 57.8398 15.9277 57.8203 15.9355C57.6172 15.998 57.4121 16.0234 57.2051 16.0117C57.1543 16.0117 57.0977 16.0117 57.0352 16.0117C56.7852 16.0039 56.6172 16.1211 56.5312 16.3633ZM61.3477 16.75C61.1211 16.9727 60.8574 17.1641 60.5566 17.3242C60.2559 17.4805 60.0039 17.584 59.8008 17.6348C59.5977 17.6816 59.3887 17.709 59.1738 17.7168C58.8301 17.7324 58.5137 17.6855 58.2246 17.5762C57.752 17.3848 57.5879 17.0195 57.7324 16.4805C57.8691 16.0156 58.1465 15.6523 58.5645 15.3906C58.9824 15.1289 59.4141 15.002 59.8594 15.0098C59.8594 15.0098 59.8633 15.0098 59.8711 15.0098C59.9844 15.002 60.0918 15.0098 60.1934 15.0332C60.3652 15.0957 60.4746 15.1973 60.5215 15.3379C60.5684 15.4785 60.5371 15.6348 60.4277 15.8066C60.1777 16.1855 59.8379 16.3965 59.4082 16.4395C59.123 16.4668 58.8477 16.4531 58.582 16.3984C58.5312 16.3906 58.4863 16.4043 58.4473 16.4395C58.4082 16.4746 58.3848 16.5176 58.377 16.5684C58.2988 16.9043 58.4023 17.1191 58.6875 17.2129C59.0391 17.334 59.4043 17.334 59.7832 17.2129C60.2207 17.0762 60.6367 16.8184 61.0312 16.4395C61.4258 16.0605 61.6523 15.8848 61.7109 15.9121C61.7734 15.9355 61.793 16.0078 61.7695 16.1289C61.7148 16.3203 61.5742 16.5273 61.3477 16.75ZM58.8516 15.8066C58.8281 15.834 58.8105 15.8652 58.7988 15.9004C58.791 15.9316 58.8047 15.9609 58.8398 15.9883C58.9766 16.0664 59.125 16.0957 59.2852 16.0762C59.4453 16.0527 59.5801 15.9922 59.6895 15.8945C59.8027 15.793 59.8516 15.6699 59.8359 15.5254C59.8242 15.4746 59.7969 15.4434 59.7539 15.4316C59.7109 15.416 59.668 15.4121 59.625 15.4199C59.3359 15.4707 59.0781 15.5996 58.8516 15.8066ZM66.0586 16.0762C66.1211 16.1543 66.043 16.2969 65.8242 16.5039C65.6055 16.7109 65.373 16.8848 65.127 17.0254C64.8809 17.166 64.5957 17.3066 64.2715 17.4473C64.0566 17.541 63.8281 17.5723 63.5859 17.541C63.3438 17.5098 63.2227 17.3633 63.2227 17.1016C63.2227 16.8398 63.2832 16.5801 63.4043 16.3223C63.5254 16.0566 63.5508 15.9199 63.4805 15.9121C63.4141 15.9043 63.2734 15.9688 63.0586 16.1055C62.5 16.4727 61.9805 16.8926 61.5 17.3652C61.3711 17.5215 61.207 17.6074 61.0078 17.623C60.9062 17.623 60.8281 17.5918 60.7734 17.5293C60.7148 17.4629 60.707 17.3926 60.75 17.3184C61.0938 16.6816 61.4414 16.0527 61.793 15.4316C61.8711 15.3027 61.9883 15.2227 62.1445 15.1914C62.2109 15.1797 62.2715 15.2012 62.3262 15.2559C62.3848 15.3066 62.4141 15.3652 62.4141 15.4316C62.4062 15.4941 62.3809 15.5684 62.3379 15.6543C62.3184 15.7051 62.2988 15.7539 62.2793 15.8008C62.2637 15.8477 62.2578 15.8867 62.2617 15.918C62.2695 15.9492 62.2949 15.959 62.3379 15.9473C62.3965 15.916 62.4551 15.8828 62.5137 15.8477C62.6621 15.7617 62.8047 15.6797 62.9414 15.6016C63.0625 15.5312 63.1895 15.4688 63.3223 15.4141C63.4551 15.3594 63.5938 15.3223 63.7383 15.3027C63.9727 15.2871 64.1387 15.3398 64.2363 15.4609C64.334 15.582 64.3457 15.75 64.2715 15.9648C64.1934 16.1602 64.1113 16.3535 64.0254 16.5449C63.9199 16.7246 63.9023 16.8613 63.9727 16.9551C64.043 17.0488 64.3691 16.9414 64.9512 16.6328L65.3906 16.375C65.8047 16.1094 66.0273 16.0098 66.0586 16.0762ZM70.9219 15.918C71.0039 15.9375 71.0469 15.9668 71.0508 16.0059C71.0547 16.0449 71.0566 16.0645 71.0566 16.0645C70.9629 16.2285 70.8555 16.3789 70.7344 16.5156C70.457 16.8242 70.1348 17.0703 69.7676 17.2539C69.5879 17.3555 69.3848 17.4102 69.1582 17.418C68.6348 17.4258 68.3945 17.1719 68.4375 16.6562C68.457 16.5469 68.4824 16.4395 68.5137 16.334C68.5332 16.2832 68.5469 16.2324 68.5547 16.1816C68.6055 15.9941 68.6191 15.8906 68.5957 15.8711C68.5762 15.8477 68.5156 15.9004 68.4141 16.0293C68.3867 16.0527 68.3613 16.0781 68.3379 16.1055C68.1816 16.293 68.0215 16.4766 67.8574 16.6562C67.5566 17 67.2129 17.2891 66.8262 17.5234C66.5957 17.6602 66.3516 17.7324 66.0938 17.7402C65.6719 17.7598 65.4355 17.5664 65.3848 17.1602C65.3652 16.9961 65.373 16.834 65.4082 16.6738C65.5801 16.0098 65.9238 15.5039 66.4395 15.1562C66.9551 14.8086 67.5449 14.6855 68.209 14.7871C68.3965 14.8418 68.5332 14.791 68.6191 14.6348C68.6543 14.5762 68.6895 14.5156 68.7246 14.4531C68.9043 14.1445 69.0801 13.8359 69.252 13.5273C69.5762 12.9336 69.9023 12.3359 70.2305 11.7344C70.4961 11.2617 70.7617 10.7852 71.0273 10.3047C71.1055 10.1562 71.1914 10.0137 71.2852 9.87695C71.3281 9.81055 71.3809 9.77148 71.4434 9.75977C71.5098 9.74414 71.5781 9.73633 71.6484 9.73633C71.6641 9.73633 71.6816 9.73633 71.7012 9.73633C71.7793 9.73633 71.8418 9.75586 71.8887 9.79492C71.9355 9.83398 71.9453 9.88672 71.918 9.95312C71.8672 10.1172 71.8066 10.2734 71.7363 10.4219C71.377 11.1406 71.0371 11.8691 70.7168 12.6074C70.4004 13.3418 70.0879 14.082 69.7793 14.8281C69.6777 15.0859 69.5742 15.3438 69.4688 15.6016C69.3398 15.9023 69.2324 16.2109 69.1465 16.5273C69.123 16.5977 69.1113 16.668 69.1113 16.7383C69.1113 16.8047 69.1445 16.8633 69.2109 16.9141C69.2539 16.9414 69.2988 16.9473 69.3457 16.9316C69.3926 16.9121 69.4434 16.8906 69.498 16.8672C69.5059 16.8555 69.5176 16.8457 69.5332 16.8379C69.9043 16.623 70.2441 16.3652 70.5527 16.0645C70.6035 16.0137 70.6562 15.9707 70.7109 15.9355C70.7695 15.9004 70.8398 15.8945 70.9219 15.918ZM68.0273 15.5371C68.0703 15.4668 68.082 15.4004 68.0625 15.3379C68.0469 15.2715 68.0039 15.2227 67.9336 15.1914C67.7891 15.1133 67.6348 15.1035 67.4707 15.1621C67.0684 15.2832 66.7305 15.5137 66.457 15.8535C66.1875 16.1934 66.041 16.5684 66.0176 16.9785C66.0254 16.998 66.0293 17.0117 66.0293 17.0195C66.0293 17.0547 66.0293 17.0898 66.0293 17.125C66.0645 17.3125 66.1797 17.3496 66.375 17.2363C66.5742 17.1191 66.7949 16.9316 67.0371 16.6738C67.2832 16.416 67.502 16.1719 67.6934 15.9414C67.8887 15.707 68 15.5723 68.0273 15.5371ZM73.957 16.75C73.7305 16.9727 73.4668 17.1641 73.166 17.3242C72.8652 17.4805 72.6133 17.584 72.4102 17.6348C72.207 17.6816 71.998 17.709 71.7832 17.7168C71.4395 17.7324 71.123 17.6855 70.834 17.5762C70.3613 17.3848 70.1973 17.0195 70.3418 16.4805C70.4785 16.0156 70.7559 15.6523 71.1738 15.3906C71.5918 15.1289 72.0234 15.002 72.4688 15.0098C72.4688 15.0098 72.4727 15.0098 72.4805 15.0098C72.5938 15.002 72.7012 15.0098 72.8027 15.0332C72.9746 15.0957 73.084 15.1973 73.1309 15.3379C73.1777 15.4785 73.1465 15.6348 73.0371 15.8066C72.7871 16.1855 72.4473 16.3965 72.0176 16.4395C71.7324 16.4668 71.457 16.4531 71.1914 16.3984C71.1406 16.3906 71.0957 16.4043 71.0566 16.4395C71.0176 16.4746 70.9941 16.5176 70.9863 16.5684C70.9082 16.9043 71.0117 17.1191 71.2969 17.2129C71.6484 17.334 72.0137 17.334 72.3926 17.2129C72.8301 17.0762 73.2461 16.8184 73.6406 16.4395C74.0352 16.0605 74.2617 15.8848 74.3203 15.9121C74.3828 15.9355 74.4023 16.0078 74.3789 16.1289C74.3242 16.3203 74.1836 16.5273 73.957 16.75ZM71.4609 15.8066C71.4375 15.834 71.4199 15.8652 71.4082 15.9004C71.4004 15.9316 71.4141 15.9609 71.4492 15.9883C71.5859 16.0664 71.7344 16.0957 71.8945 16.0762C72.0547 16.0527 72.1895 15.9922 72.2988 15.8945C72.4121 15.793 72.4609 15.6699 72.4453 15.5254C72.4336 15.4746 72.4062 15.4434 72.3633 15.4316C72.3203 15.416 72.2773 15.4121 72.2344 15.4199C71.9453 15.4707 71.6875 15.5996 71.4609 15.8066ZM76.8398 15.4023C76.8047 15.6719 76.6777 15.8477 76.459 15.9297C76.2402 16.0117 76.168 15.9043 76.2422 15.6074C76.3203 15.3105 76.1875 15.2363 75.8438 15.3848C75.5 15.5293 75.2168 15.7129 74.9941 15.9355C74.6504 16.2871 74.3457 16.666 74.0801 17.0723C74.0527 17.1074 74.0312 17.1367 74.0156 17.1602C73.9375 17.2734 73.8594 17.3809 73.7812 17.4824C73.7305 17.5527 73.6719 17.5977 73.6055 17.6172C73.5352 17.6328 73.4648 17.6348 73.3945 17.623C73.3281 17.6152 73.2773 17.5898 73.2422 17.5469C73.207 17.5039 73.2031 17.4531 73.2305 17.3945C73.2734 17.2891 73.3242 17.1816 73.3828 17.0723C73.7344 16.4199 74.0918 15.7656 74.4551 15.1094C74.4629 15.1016 74.4668 15.0938 74.4668 15.0859C74.5176 14.9844 74.5781 14.8906 74.6484 14.8047C74.7266 14.7188 74.8164 14.6836 74.918 14.6992C75.0195 14.7148 75.0879 14.7754 75.123 14.8809C75.166 15.0176 75.2031 15.0957 75.2344 15.1152C75.2656 15.1309 75.3359 15.1172 75.4453 15.0742C75.6797 14.9883 75.9082 14.9277 76.1309 14.8926C76.3535 14.8574 76.5352 14.8672 76.6758 14.9219C76.8203 14.9727 76.875 15.1328 76.8398 15.4023Z" fill="#E03A3E"/>
</svg>
